<svg xmlns="http://www.w3.org/2000/svg" xmlns:xlink="http://www.w3.org/1999/xlink" viewBox="0 0 238.34 198.67">

<defs>
    <style>
    .cls-1,.cls-13,.cls-2,.cls-5{fill:#ff7354;}.cls-1,.cls-10,.cls-13,.cls-2,.cls-3,.cls-7{stroke:#ff7354;}.cls-1,.cls-3,.cls-7{stroke-linejoin:round;stroke-width:14px;}.cls-10,.cls-13,.cls-2{stroke-miterlimit:10;}.cls-11,.cls-3{fill:#fff;}.cls-4{isolation:isolate;}.cls-6{clip-path:url(#clip-path);}.cls-10,.cls-7{fill:none;}.cls-8{fill:#ac7e34;}.cls-9{clip-path:url(#clip-path-2);}.cls-12{clip-path:url(#clip-path-3);}.cls-13{stroke-width:4px;}</style>
    <clipPath id="clip-path">
    <path class="cls-1" d="M135.87,188.68,23.1,123.15C4.5,112.34,7,75.74,7.22,73L120,138.54C119.79,141.27,117.27,177.87,135.87,188.68Z"/>
    </clipPath>
    <clipPath id="clip-path-2">
    <path class="cls-2" d="M23.1,123.15c8.36,4.86,21,4.5,40-6.48,61.36-35.43,55.76-104.33,55.47-108L231.36,74.24c.29,3.63,5.89,72.53-55.47,108-19,11-31.66,11.34-40,6.48Z"/>
    </clipPath>
    <clipPath id="clip-path-3">
    <path class="cls-3" d="M135.39,188.38,22.79,123.09C4.22,112.32,6.75,75.85,6.94,73.14l112.59,65.29C119.34,141.15,116.82,177.61,135.39,188.38Z"/>
    </clipPath>
</defs>
    <g id="聖書">
        <path class="cls-1" d="M231.36,74.24c.29,3.63,5.89,72.53-55.47,108S119.71,142.5,120,138.54Z"/>
        <g class="cls-4">
            <path class="cls-5" d="M135.87,188.68,23.1,123.15C4.5,112.34,7,75.74,7.22,73L120,138.54C119.79,141.27,117.27,177.87,135.87,188.68Z"/>
            <g class="cls-6">
                <g class="cls-4">
                <path class="cls-1" d="M135.87,188.68,23.1,123.15C4.5,112.34,7,75.74,7.22,73L120,138.54c-.19,2.73-2.71,39.33,15.89,50.14"/>
                </g>
            </g>
            <path class="cls-7" d="M135.87,188.68,23.1,123.15C4.5,112.34,7,75.74,7.22,73L120,138.54C119.79,141.27,117.27,177.87,135.87,188.68Z"/>
        </g>
        <polygon class="cls-1" points="119.98 138.54 7.22 73.01 118.59 8.71 231.36 74.24 119.98 138.54"/>
        <path class="cls-8" d="M118.59,8.71c.29,3.63,5.89,72.53-55.47,108S6.94,77,7.22,73Z"/>
        <g class="cls-4">
            <path class="cls-5" d="M23.1,123.15c8.36,4.86,21,4.5,40-6.48,61.36-35.43,55.76-104.33,55.47-108L231.36,74.24c.29,3.63,5.89,72.53-55.47,108-19,11-31.66,11.34-40,6.48Z"/>
            <g class="cls-9">
                <g class="cls-4">
                <path class="cls-2" d="M231.36,74.24,118.59,8.71a116.4,116.4,0,0,1-.83,23.51L230.52,97.75a116,116,0,0,0,.84-23.51"/>
                <path class="cls-2" d="M230.52,97.75,117.76,32.22c-.43,3.26-1,6.76-1.78,10.43l112.76,65.53c.78-3.67,1.36-7.17,1.78-10.43"/>
                <path class="cls-2" d="M228.74,108.18,116,42.65c-.53,2.46-1.14,5-1.86,7.61l112.76,65.53c.73-2.6,1.34-5.14,1.86-7.61"/>
                <path class="cls-2" d="M226.88,115.79,114.12,50.26q-.81,2.93-1.81,5.92l112.77,65.53c.66-2,1.26-4,1.8-5.92"/>
                <path class="cls-2" d="M225.08,121.71,112.31,56.18q-.82,2.51-1.8,5l112.77,65.53q1-2.53,1.8-5"/>
                <path class="cls-2" d="M223.28,126.75,110.51,61.22c-.58,1.52-1.21,3.06-1.87,4.59l112.77,65.54c.66-1.54,1.29-3.07,1.87-4.6"/>
                <path class="cls-2" d="M221.41,131.35,108.64,65.81q-.9,2.07-1.89,4.15l112.76,65.53q1-2.07,1.9-4.14"/>
                <path class="cls-2" d="M219.51,135.49,106.75,70c-.63,1.31-1.29,2.61-2,3.92l112.77,65.53c.69-1.3,1.35-2.61,2-3.92"/>
                <path class="cls-2" d="M217.53,139.41,104.76,73.88c-.67,1.27-1.37,2.53-2.11,3.79l112.77,65.54c.73-1.27,1.44-2.53,2.11-3.8"/>
                <path class="cls-2" d="M215.42,143.21,102.65,77.67q-1.11,1.9-2.32,3.8L213.1,147c.81-1.26,1.58-2.53,2.32-3.79"/>
                <path class="cls-2" d="M213.1,147,100.33,81.47q-1.22,1.89-2.53,3.77l112.77,65.53q1.32-1.87,2.53-3.77"/>
                <path class="cls-2" d="M210.57,150.77,97.8,85.24q-1.48,2.12-3.11,4.21L207.45,155c1.09-1.39,2.13-2.8,3.12-4.21"/>
                <path class="cls-2" d="M207.45,155,94.69,89.45c-1.22,1.56-2.49,3.1-3.83,4.63l112.77,65.53c1.33-1.53,2.61-3.07,3.82-4.63"/>
                <path class="cls-2" d="M203.63,159.61,90.86,94.08c-1.73,2-3.57,3.92-5.53,5.83L198.1,165.44c2-1.9,3.79-3.85,5.53-5.83"/>
                <path class="cls-2" d="M198.1,165.44,85.33,99.91a110.86,110.86,0,0,1-22.21,16.76A95.52,95.52,0,0,1,52.47,122l112.77,65.53a96.39,96.39,0,0,0,10.65-5.35,110.86,110.86,0,0,0,22.21-16.76"/>
                <path class="cls-2" d="M165.24,187.55,52.47,122A60.3,60.3,0,0,1,45,124.64l112.77,65.54a62.73,62.73,0,0,0,7.49-2.63"/>
                <path class="cls-2" d="M157.75,190.18,45,124.64a43.7,43.7,0,0,1-5,1.09l112.77,65.53a43.58,43.58,0,0,0,5-1.08"/>
                <path class="cls-2" d="M152.74,191.26,40,125.73c-1.26.19-2.46.31-3.63.37l112.77,65.53a34.37,34.37,0,0,0,3.63-.37"/>
                <path class="cls-2" d="M149.11,191.63,36.34,126.1a31.46,31.46,0,0,1-3.23,0l112.77,65.53a26.65,26.65,0,0,0,3.23,0"/>
                <path class="cls-2" d="M145.88,191.61,33.11,126.08a26.15,26.15,0,0,1-2.73-.32L143.15,191.3a25.87,25.87,0,0,0,2.73.31"/>
                <path class="cls-2" d="M143.15,191.3,30.38,125.76a22,22,0,0,1-2.52-.58l112.76,65.54a24.59,24.59,0,0,0,2.53.58"/>
                <path class="cls-2" d="M140.62,190.72,27.86,125.18a21.51,21.51,0,0,1-2.34-.82l112.77,65.53a23.71,23.71,0,0,0,2.33.83"/>
                <path class="cls-2" d="M138.29,189.89,25.52,124.36a21.61,21.61,0,0,1-2.21-1.09L136.07,188.8a20.77,20.77,0,0,0,2.22,1.09"/>
                <path class="cls-2" d="M136.07,188.8,23.31,123.27l-.21-.12,112.77,65.53.2.12"/>
                </g>
            </g>
            <path class="cls-10" d="M23.1,123.15c8.36,4.86,21,4.5,40-6.48,61.36-35.43,55.76-104.33,55.47-108L231.36,74.24c.29,3.63,5.89,72.53-55.47,108-19,11-31.66,11.34-40,6.48Z"/>
        </g>
        <path class="cls-3" d="M217.89,81.76a8.55,8.55,0,0,1,12.81,8c-1.57,23.08-10.73,66.48-55.35,92.19-51.12,29.45-56-17.76-56-36.51a11.8,11.8,0,0,1,5.94-10.28Z"/>
        <g class="cls-4">
            <path class="cls-11" d="M135.39,188.38,22.79,123.09C4.22,112.32,6.75,75.85,6.94,73.14l112.59,65.29C119.34,141.15,116.82,177.61,135.39,188.38Z"/>
            <g class="cls-12">
                <g class="cls-4">
                    <path class="cls-3" d="M135.39,188.38,22.79,123.09C11.26,116.4,7.87,99.81,7,87.54a8,8,0,0,1,11.92-7.46l95.45,55.35a9.92,9.92,0,0,1,5,8.66c-.1,11.29,1.41,35.79,16.07,44.29"/>
                </g>
            </g>
            <path class="cls-7" d="M135.39,188.38,22.79,123.09C4.22,112.32,6.75,75.85,6.94,73.14l112.59,65.29C119.34,141.15,116.82,177.61,135.39,188.38Z"/>
        </g>
        <path class="cls-3" d="M115.38,136,19.3,80.31a8.26,8.26,0,0,1,0-14.31L114,11.46a8.31,8.31,0,0,1,8.31,0l96.08,55.71a8.26,8.26,0,0,1,0,14.31L123.69,136A8.31,8.31,0,0,1,115.38,136Z"/>
        <path class="cls-13" d="M108.5,85.51l41.43-24a.36.36,0,0,0,0-.63l-9.48-5.5L89.19,25.68,79.07,31.53l50.66,29.38a.37.37,0,0,1,0,.63L97.86,80h0l-1,.55-7,4.07h0l-1.58.91a.37.37,0,0,0,0,.64l61.08,35.43,10.12-5.84-51-29.59A.36.36,0,0,1,108.5,85.51Z"/>
        <path class="cls-13" d="M198.45,93.24,189,98.67a.3.3,0,0,0-.15.26v32.91a.52.52,0,0,0,.78.45l9-5.17a.53.53,0,0,0,.25-.45V93.49A.29.29,0,0,0,198.45,93.24Z"/>
        <path class="cls-13" d="M163.45,114.24,154,119.67a.3.3,0,0,0-.15.26v32.91a.52.52,0,0,0,.78.45l9-5.17a.53.53,0,0,0,.25-.45V114.49A.29.29,0,0,0,163.45,114.24Z"/>
    </g>
</svg>
