<svg xmlns="http://www.w3.org/2000/svg" viewBox="0 0 79.58 67.38"><defs><style>.cls-1{fill:#fff;}.cls-2{fill:none;stroke:#fff;stroke-linecap:round;stroke-width:7px;}</style></defs><g id="レイヤー_2" data-name="レイヤー 2"><g id="レイヤー_2-2" data-name="レイヤー 2"><g id="グループ_76" data-name="グループ 76"><path id="パス_52" data-name="パス 52" class="cls-1" d="M48.52,41.87H36.27a.08.08,0,0,0-.07.08h0v9.61c0,1-.46,1.65-1.09,1.65H32.2c-.64,0-1.09-.69-1.09-1.65V42a.08.08,0,0,0-.07-.08H20.16a.08.08,0,0,0-.07.08h0V51.7c0,.86-.47,1.51-1.09,1.51H16.09c-.62,0-1.09-.64-1.09-1.51V42a.08.08,0,0,0-.07-.08H2.46A2.47,2.47,0,0,0,0,44.34v.06c.82,30.6,50.13,30.69,51,0a2.47,2.47,0,0,0-2.4-2.53Z"/><g id="グループ_75" data-name="グループ 75"><line id="線_10" data-name="線 10" class="cls-2" x1="59.72" y1="3.5" x2="59.72" y2="36.32"/><line id="線_11" data-name="線 11" class="cls-2" x1="76.08" y1="19.91" x2="43.35" y2="19.91"/></g></g></g></g></svg>