<svg xmlns="http://www.w3.org/2000/svg" viewBox="0 0 166.21 76.04"><defs><style>.cls-1{fill:#fff;}</style></defs><g id="レイヤー_2" data-name="レイヤー 2"><g id="イメージ"><path class="cls-1" d="M162.89,0H121V29.15A3.86,3.86,0,0,1,117.14,33h-10.3A3.85,3.85,0,0,1,103,29.15V0H64V29.15A3.86,3.86,0,0,1,60.14,33H49.84A3.85,3.85,0,0,1,46,29.15V0H3.33A3.34,3.34,0,0,0,0,3.49C1.25,29.27,13.35,50.21,34.74,63.13c28.44,17.17,68.18,17.21,96.64.09,21.41-12.89,33.55-33.86,34.83-59.72A3.34,3.34,0,0,0,162.89,0Z"/></g></g></svg>